<svg xmlns="http://www.w3.org/2000/svg" viewBox="0 0 128 128">
  <!-- Cat face background -->
  <circle cx="64" cy="68" r="42" fill="#FFA726"/>
  
  <!-- Left ear -->
  <path d="M 35 35 L 25 15 L 45 35 Z" fill="#FFA726" stroke="#FF8A65" stroke-width="2"/>
  <path d="M 35 35 L 30 22 L 42 35 Z" fill="#FFCCBC"/>
  
  <!-- Right ear -->
  <path d="M 93 35 L 103 15 L 83 35 Z" fill="#FFA726" stroke="#FF8A65" stroke-width="2"/>
  <path d="M 93 35 L 98 22 L 86 35 Z" fill="#FFCCBC"/>
  
  <!-- Face details -->
  <ellipse cx="50" cy="65" rx="6" ry="8" fill="#333"/>
  <ellipse cx="78" cy="65" rx="6" ry="8" fill="#333"/>
  
  <!-- Nose -->
  <path d="M 64 75 L 60 80 L 68 80 Z" fill="#FF6B6B"/>
  
  <!-- Mouth -->
  <path d="M 64 80 Q 58 85 52 82" stroke="#333" stroke-width="2" fill="none" stroke-linecap="round"/>
  <path d="M 64 80 Q 70 85 76 82" stroke="#333" stroke-width="2" fill="none" stroke-linecap="round"/>
  
  <!-- Whiskers -->
  <line x1="30" y1="70" x2="45" y2="68" stroke="#333" stroke-width="1.5"/>
  <line x1="30" y1="75" x2="45" y2="75" stroke="#333" stroke-width="1.5"/>
  <line x1="83" y1="68" x2="98" y2="70" stroke="#333" stroke-width="1.5"/>
  <line x1="83" y1="75" x2="98" y2="75" stroke="#333" stroke-width="1.5"/>
</svg>